<?xml version="1.0" encoding="UTF-8"?>
<svg xmlns="http://www.w3.org/2000/svg" viewBox="0 0 780 320" role="img" aria-labelledby="title desc">
  <title id="title">ByUs wordmark — Bricolage Grotesque ExtraBold</title>
  <desc id="desc">Outlined expressive fan energy variation using Bricolage Grotesque ExtraBold.</desc>
  <defs>
    <linearGradient id="word-gradient" gradientUnits="userSpaceOnUse" x1="430" y1="20" x2="1110" y2="260">
      <stop offset="0" stop-color="#FF5FBF"/>
      <stop offset="1" stop-color="#7B5CFF"/>
    </linearGradient>
  </defs>
  <path d="M42.0 205.6177991065361V55.0H105.18115699895945Q119.23229401821384 55.0 130.33301346060603 57.44509613116257Q141.4337329029982 59.890192262325144 149.27432881342662 64.79668117261383Q157.11492472385504 69.70317008290252 161.23897952926953 77.20145281354334Q165.36303433468402 84.69973554418415 165.36303433468402 94.90391648843965Q165.36303433468402 103.90186690821578 161.5975893570206 110.8133449533394Q157.8321443793572 117.724822998463 149.6981252330318 121.9792927738625Q141.56410608670637 126.233762549262 128.2301887229542 127.50520752311331V130.60229493164718Q150.6272709558545 131.8737399054985 161.0759712633575 141.1977068570987Q171.5246715708605 150.5216738086989 171.5246715708605 166.13767903770164Q171.5246715708605 179.3737886561548 164.54800693388282 188.04572254410687Q157.57134229690513 196.71765643205896 144.12333446864938 201.16772776929753Q130.67532664039362 205.6177991065361 110.88637666208582 205.6177991065361ZM77.79621404602443 176.2114589407311H109.41931619763648Q122.36197472267474 176.2114589407311 128.88222178660232 172.11999743124363Q135.40246885052989 168.02853592175614 135.40246885052989 159.7478330150001Q135.40246885052989 150.55429496214384 127.75748843069951 146.00642980836523Q120.11250801086912 141.45856465458658 104.56174508875625 141.45856465458658H77.79621404602443ZM77.79621404602443 117.92041063154313H100.12799825699909Q114.96151366609188 117.92041063154313 122.19898038552165 113.51924316695407Q129.43644710495144 109.118075702365 129.43644710495144 100.41354851848588Q129.43644710495144 92.03503786643083 122.8184062244838 88.04138410224238Q116.20036534401615 84.04773033805391 102.83388254185482 84.04773033805391H77.79621404602443ZM234.9015833480074 245.0Q226.7513093399953 245.0 217.68818625712402 243.59815398492265Q208.62506317425272 242.19630796984526 200.21394529751169 239.29480819439152Q191.80282742077065 236.39330841893778 185.24995920339813 231.8617538418816L193.95448638727726 197.4021435040447Q202.03960166095317 205.0308412046705 212.91209838806137 208.48656629847335Q223.78459511516957 211.94229139227622 233.20631409703302 211.94229139227622Q244.9101488016649 211.94229139227622 252.68554419148026 207.3618190138116Q260.46093958129563 202.781346635347 264.5360905140607 193.57151193452722Q268.61124144682566 184.36167723370744 269.00244457050377 170.73439234909398L269.654449776634 150.52159023614524H265.64455507951783Q264.27533021788537 165.7137990455428 259.3362480116697 175.41268640161655Q254.39716580545394 185.11157375769034 246.47505879769005 189.70835671287742Q238.55295178992617 194.3051396680645 227.9249465685476 194.3051396680645Q214.78664469539342 194.3051396680645 206.03321363886482 187.68708485883792Q197.2797825823362 181.0690300496113 192.87861511774713 167.7677199105451Q188.47744765315807 154.46640977147894 188.47744765315807 134.61224534379915V85.12355982130723H225.3494633249179V125.28827839219896Q225.3494633249179 145.59883253541093 229.52242200298193 154.5641757305011Q233.69538068104595 163.52951892559125 242.72592439674912 163.52951892559125Q247.42050116847625 163.52951892559125 251.15333892145367 160.9377251052391Q254.88617667443108 158.34593128488697 257.42906662213375 153.37424185398527Q259.9719565698364 148.40255242308356 261.3086020643007 141.1161679022453Q262.64524755876505 133.82978338140708 262.64524755876505 124.53840972573394V85.12355982130723H299.3868621892989V172.10364506824433Q299.3868621892989 185.73092995285776 296.81136501691026 197.1576519983151Q294.23586784452164 208.58437404377239 289.1500740203574 217.43561284560002Q284.0642801961932 226.28685164742762 276.3540853269908 232.4810961082901Q268.6438904577884 238.67534056915255 258.3255911915115 241.8376702845763Q248.00729192523454 245.0 234.9015833480074 245.0Z" fill="#17191C"/>
  <path d="M388.8446507920845 208.81272211788686Q375.0543437128001 208.81272211788686 364.26334415426845 205.91120841367416Q353.4723445957368 203.00969470946148 345.59915538938134 197.5326838328602Q337.7259661830259 192.05567295625886 332.55867519028516 184.3454780870565Q327.39138419754437 176.63528321785415 324.8647908978053 166.98531366318883Q322.33819759806613 157.33534410852351 322.33819759806613 146.02271252756978V55.0H359.308021015125V144.58824535904748Q359.308021015125 155.83569034814712 362.7311528130008 162.86125885777432Q366.15428461087663 169.8868273674015 372.6908143940088 173.04914315406631Q379.22734417714094 176.2114589407311 388.71424975085847 176.2114589407311Q398.42936411110105 176.2114589407311 404.9658938942332 173.04914315406631Q411.50242367736536 169.8868273674015 414.92555547524114 162.91016273042382Q418.348687273117 155.93349809344613 418.348687273117 144.58824535904748V55.0H455.18810964894976V146.02271252756978Q455.18810964894976 175.82025581705295 438.62668990667873 192.31648896746992Q422.0652701644077 208.81272211788686 388.8446507920845 208.81272211788686ZM529.2584360994724 208.81272211788686Q517.1633704136445 208.81272211788686 507.1058732298197 206.54693090059982Q497.0483760459948 204.2811396833128 489.59898325924456 199.6843427993668Q482.1495904724943 195.08754591542078 477.7647335846277 188.0619216907578Q473.3798766967611 181.03629746609485 472.63009160284975 171.61443919664197L502.06910863713546 163.39909002684732Q503.1775314163158 168.84356332255737 506.7310503266587 173.22844806794186Q510.2845692370016 177.61333281332634 516.3809780950471 180.02582171980293Q522.4773869530927 182.43831062627953 531.181886279454 182.43831062627953Q539.5603690739912 182.43831062627953 544.6950667708049 179.9117173265404Q549.8297644676186 177.3851240268013 549.8297644676186 172.07110748735306Q549.8297644676186 168.7131901388492 547.3520889692879 166.6430144121602Q544.8744134709573 164.57283868547117 539.5115209163774 162.86127278653328Q534.1486283617976 161.14970688759536 525.3136722791745 159.25882214602296Q515.5006387435615 156.94411312732748 506.4048805784863 154.3034015055669Q497.3091224134111 151.6626898838063 490.0390623980543 147.4897312057423Q482.76900238269747 143.31677252767827 478.56346433746535 136.74763551986013Q474.3579262922333 130.17849851204198 474.3579262922333 120.2351475077565Q474.3579262922333 108.46607049623476 480.63368185043123 99.94083429747226Q486.9094374086292 91.41559809870975 498.711093787319 86.6721174543331Q510.5127501660088 81.92863680995646 526.8133538970689 81.92863680995646Q541.3860950812274 81.92863680995646 553.0899576433771 86.0038016714804Q564.7938202055269 90.07896653300435 572.1453913182193 98.32713185886914Q579.4969624309115 106.57529718473391 580.5401150456842 119.25729291490951L550.220911876261 126.52724150019479Q549.8623299060278 120.95239502077658 546.765228568735 116.86091958253017Q543.6681272314422 112.76944414428377 538.4845395907379 110.63405396822279Q533.3009519500336 108.4986637921618 526.1938862718298 108.4986637921618Q517.7827823238478 108.4986637921618 513.1697166494561 111.28607310311196Q508.55665097506443 114.07348241406213 508.55665097506443 118.53985039926421Q508.55665097506443 122.09338323836609 511.5722551437807 124.48957549687916Q514.587859312497 126.88576775539222 520.504977185426 128.5321331337171Q526.4220950583549 130.17849851204198 535.06143565038 132.10197654954146Q543.602940639588 133.82983909644287 552.2422673028541 136.27493522760545Q560.8815939661202 138.72003135876804 568.119074614309 142.8114928682555Q575.3565552624977 146.90295437774296 579.7251294311598 153.55361641165553Q584.0937035998218 160.2042784455681 584.0937035998218 170.57148158449456Q584.0937035998218 182.27531628912644 577.7364648018063 190.9146429523925Q571.3792260037907 199.55396961565862 559.1863665014228 204.18334586677275Q546.9935069990547 208.81272211788686 529.2584360994724 208.81272211788686ZM618.8128499905844 208.58451333136182Q607.045066866107 208.58451333136182 601.2257428097182 203.5639200278106Q595.4064187533293 198.5433267242594 595.4064187533293 188.0457225441069Q595.4064187533293 177.3199095774293 601.2257428097182 172.2993162738781Q607.045066866107 167.2787229703269 618.8128499905844 167.2787229703269Q630.8113739606398 167.2787229703269 636.7448024102912 172.2993162738781Q642.6782308599426 177.3199095774293 642.6782308599426 188.0457225441069Q642.6782308599426 208.58451333136182 618.8128499905844 208.58451333136182Z" fill="url(#word-gradient)"/>
  <path d="M696 13 C701 37 710 46 734 51 C710 56 701 65 696 89 C691 65 682 56 658 51 C682 46 691 37 696 13Z" fill="url(#word-gradient)"/>
</svg>
